<svg width="37" height="36" viewBox="0 0 37 36" fill="none" xmlns="http://www.w3.org/2000/svg">
<g clip-path="url(#clip0_279_280)">
<path d="M14.2093 5.98507C14.1599 4.75618 14.2422 3.55472 14.4479 2.39166C14.5466 1.82111 14.8731 1.3301 15.3284 1.01465C24.9758 3.66993 32.563 11.2929 35.1635 20.9622C34.8535 21.3791 34.3899 21.6754 33.855 21.7714C33.1226 21.9003 32.3738 21.9853 31.6112 22.0155C22.3781 22.394 14.5878 15.2182 14.2093 5.98507Z" fill="white" stroke="white" stroke-width="0.0685764" stroke-miterlimit="10"/>
<path d="M36.137 28.3468C36.137 30.4479 35.9039 32.4943 35.4677 34.4638C35.273 35.3525 34.4967 35.9917 33.5887 35.9917H1.92014C0.858577 35.9917 0 35.1303 0 34.0715V2.58122C0 1.68424 0.619931 0.907952 1.49771 0.707709C3.51934 0.246875 5.62601 0 7.78754 0C9.49646 0 11.167 0.150868 12.7936 0.438889C6.20205 3.17372 1.69521 9.80094 2.00243 17.3443C2.40017 27.0109 10.558 34.5296 20.2273 34.1319C27.266 33.8438 33.1636 29.444 35.6981 23.3379C35.9862 24.9618 36.137 26.6378 36.137 28.3468Z" fill="white"/>
<path d="M35.5667 20.0491C35.5063 20.3865 35.3665 20.6992 35.1635 20.9625C34.8535 21.3795 34.3899 21.6757 33.855 21.7717C33.1226 21.9006 32.3738 21.9857 31.6112 22.0159C22.3781 22.3944 14.5878 15.2186 14.2093 5.98543C14.1599 4.75654 14.2422 3.55508 14.4479 2.39203C14.5466 1.82147 14.8731 1.33046 15.3284 1.01501C15.5726 0.8422 15.8551 0.724248 16.1596 0.669387C16.892 0.53772 17.6408 0.452686 18.4034 0.422512C27.6365 0.04397 35.4268 7.22255 35.8053 16.4529C35.8547 17.6818 35.7697 18.886 35.5667 20.0491Z" fill="white"/>
<path d="M35.5667 20.0491C35.5063 20.3865 35.3665 20.6992 35.1635 20.9625C34.8535 21.3795 34.3899 21.6757 33.855 21.7717C33.1226 21.9006 32.3738 21.9857 31.6112 22.0159C22.3781 22.3944 14.5878 15.2186 14.2093 5.98543C14.1599 4.75654 14.2422 3.55508 14.4479 2.39203C14.5466 1.82147 14.8731 1.33046 15.3284 1.01501C15.5726 0.8422 15.8551 0.724248 16.1596 0.669387C16.892 0.53772 17.6408 0.452686 18.4034 0.422512C27.6365 0.04397 35.4268 7.22255 35.8053 16.4529C35.8547 17.6818 35.7697 18.886 35.5667 20.0491Z" fill="white"/>
</g>
<defs>
<clipPath id="clip0_279_280">
<rect width="36.137" height="35.9917" fill="white"/>
</clipPath>
</defs>
</svg>
