<svg width="124" height="123" viewBox="0 0 124 123" fill="none" xmlns="http://www.w3.org/2000/svg">
<g clip-path="url(#clip0_94_776)">
<path d="M124 96.8739C124 104.055 123.2 111.048 121.703 117.779C121.035 120.816 118.371 123 115.256 123H6.58874C2.94611 123 0 120.056 0 116.438V8.8212C0 5.75581 2.12722 3.10289 5.13921 2.41857C12.0762 0.843686 19.305 0 26.722 0C32.586 0 38.3182 0.515586 43.8998 1.49989C21.2816 10.846 5.81691 33.4943 6.87111 59.2736C8.23592 92.3086 36.2286 118.003 69.4076 116.644C93.56 115.66 113.797 100.624 122.494 79.7564C123.482 85.306 124 91.0337 124 96.8739Z" fill="black" fill-opacity="0.1"/>
<path d="M122.042 68.5169C121.835 69.67 121.355 70.7386 120.659 71.6386C119.595 73.0635 118.004 74.0759 116.169 74.404C113.656 74.8446 111.086 75.1352 108.47 75.2383C76.7872 76.5319 50.0557 52.0088 48.7568 20.455C48.5874 16.2553 48.8698 12.1494 49.5757 8.17466C49.9146 6.2248 51.0346 4.54681 52.5971 3.46876C53.4348 2.87818 54.4043 2.47509 55.4491 2.2876C57.9622 1.83764 60.5318 1.54704 63.1485 1.44392C94.8309 0.150268 121.562 24.6828 122.861 56.2272C123.031 60.4269 122.739 64.5422 122.042 68.5169Z" fill="black" fill-opacity="0.1"/>
</g>
<defs>
<clipPath id="clip0_94_776">
<rect width="124" height="123" fill="white"/>
</clipPath>
</defs>
</svg>
