<svg width="167" height="200" viewBox="0 0 167 200" fill="none" xmlns="http://www.w3.org/2000/svg">
<path d="M109 52C109 46.4771 113.51 41.9122 118.951 42.8597C130.639 44.8953 141.51 50.4853 150.012 58.9878C160.889 69.8649 167 84.6174 167 100C167 115.383 160.889 130.135 150.012 141.012C141.51 149.515 130.639 155.105 118.951 157.14C113.51 158.088 109 153.523 109 148L109 100L109 52Z" fill="#03C39A"/>
<path d="M100 10C100 4.47716 95.5116 -0.0518953 90.0163 0.499298C67.1613 2.79178 45.6749 12.9037 29.2893 29.2893C10.5357 48.0429 -2.09896e-06 73.4783 -1.08876e-05 100C-1.20469e-05 126.522 10.5357 151.957 29.2893 170.711C45.6749 187.096 67.1613 197.208 90.0163 199.501C95.5116 200.052 100 195.523 100 190L100 100L100 10Z" fill="#A6E1FA"/>
</svg>
