<?xml version="1.0" encoding="UTF-8"?>
<svg id="Layer_2" xmlns="http://www.w3.org/2000/svg" viewBox="0 0 134.01 134.02">
  <defs>
    <style>
      .cls-1 {
        fill: #231f20;
      }
    </style>
  </defs>
  <g id="Layer_1-2" data-name="Layer_1">
    <g>
      <path class="cls-1" d="M74.22,126.95c-35.48,1.45-65.43-26.13-66.88-61.62C6.17,36.89,23.66,12.03,48.91,2.52c-7.51-1.65-15.31-2.52-23.32-2.52-6.8,0-13.45.64-19.9,1.85C2.39,2.46,0,5.38,0,8.75v118.25c0,3.88,3.14,7.02,7.02,7.02h118.24c3.37,0,6.29-2.39,6.91-5.7,1.21-6.45,1.85-13.1,1.85-19.91,0-7.78-.83-15.36-2.38-22.68-8.93,23.22-30.97,40.13-57.41,41.21Z"/>
      <path class="cls-1" d="M67.25,3.5c-2.58.11-5.12.37-7.61.79-3.6.6-6.42,3.4-7.01,7.01-.68,4.09-.95,8.31-.77,12.62,1.39,33.88,29.98,60.22,63.86,58.83,2.58-.11,5.12-.37,7.61-.79,3.6-.6,6.42-3.4,7.01-7.01.68-4.09.95-8.31.77-12.62-1.39-33.88-29.98-60.22-63.86-58.83Z"/>
    </g>
  </g>
</svg>