<?xml version="1.0" encoding="UTF-8"?>
<svg id="Layer_2" xmlns="http://www.w3.org/2000/svg" viewBox="0 0 134.01 134.02">
  <defs>
    <style>
      .cls-1 {
        fill: #fff;
      }
    </style>
  </defs>
  <g id="Layer_1-2" data-name="Layer_1">
    <g>
      <path class="cls-1" d="M71.63,132.34C34.65,133.86,3.45,105.11,1.94,68.14.7,37.9,19.71,11.53,46.9,2.1c-6.89-1.37-14.01-2.1-21.3-2.1-6.8,0-13.45.64-19.9,1.85C2.39,2.46,0,5.38,0,8.75v118.25c0,3.88,3.14,7.02,7.02,7.02h118.24c3.37,0,6.29-2.39,6.91-5.7,1.21-6.45,1.85-13.1,1.85-19.91s-.68-13.95-1.97-20.63c-8.88,25.03-32.25,43.41-60.41,44.57Z"/>
      <path class="cls-1" d="M65.41,2.67c-2.69.11-5.34.39-7.92.83-3.76.63-6.69,3.54-7.31,7.3-.71,4.26-.99,8.66-.81,13.15,1.45,35.3,31.24,62.75,66.54,61.3,2.69-.11,5.34-.39,7.92-.83,3.76-.63,6.69-3.54,7.31-7.3.71-4.26.99-8.66.81-13.15C130.51,28.67,100.72,1.23,65.41,2.67Z"/>
    </g>
  </g>
</svg>