<svg width="28" height="28" viewBox="0 0 28 28" fill="none" xmlns="http://www.w3.org/2000/svg">
<path fill-rule="evenodd" clip-rule="evenodd" d="M12.9663 25.7364C12.9663 25.7364 4.61914 18.7065 4.61914 11.7892C4.61914 9.35041 5.58794 7.01151 7.31242 5.28703C9.0369 3.56255 11.3758 2.59375 13.8146 2.59375C16.2534 2.59375 18.5923 3.56255 20.3167 5.28703C22.0412 7.01151 23.01 9.35041 23.01 11.7892C23.01 18.7065 14.6629 25.7364 14.6629 25.7364C14.1985 26.164 13.4341 26.1594 12.9663 25.7364ZM13.8146 15.8122C14.3429 15.8122 14.866 15.7081 15.3541 15.506C15.8422 15.3038 16.2857 15.0075 16.6593 14.6339C17.0328 14.2603 17.3292 13.8168 17.5314 13.3287C17.7335 12.8406 17.8376 12.3175 17.8376 11.7892C17.8376 11.2609 17.7335 10.7377 17.5314 10.2497C17.3292 9.76156 17.0328 9.31807 16.6593 8.9445C16.2857 8.57093 15.8422 8.27459 15.3541 8.07242C14.866 7.87024 14.3429 7.76619 13.8146 7.76619C12.7476 7.76619 11.7243 8.19004 10.9699 8.9445C10.2154 9.69896 9.79158 10.7222 9.79158 11.7892C9.79158 12.8562 10.2154 13.8794 10.9699 14.6339C11.7243 15.3883 12.7476 15.8122 13.8146 15.8122Z" fill="black"/>
</svg>
