<svg width="113" height="113" viewBox="0 0 113 113" fill="none" xmlns="http://www.w3.org/2000/svg">
<g clip-path="url(#clip0_305_339)">
<path d="M44.2172 18.8072C44.0636 14.9831 44.3196 11.2444 44.9598 7.62513C45.2671 5.84965 46.2829 4.32172 47.6999 3.34009C77.7208 11.6029 101.331 35.3242 109.423 65.4134C108.459 66.7109 107.016 67.6328 105.352 67.9315C103.072 68.3327 100.742 68.5973 98.3692 68.6912C69.6372 69.8692 45.3952 47.5392 44.2172 18.8072Z" fill="white" stroke="white" stroke-width="0.213398" stroke-miterlimit="10"/>
<path d="M112.452 88.393C112.452 94.9315 111.727 101.299 110.37 107.428C109.764 110.194 107.348 112.183 104.523 112.183H5.97515C2.67175 112.183 0 109.502 0 106.207V8.21493C0 5.42368 1.92912 3.00801 4.66062 2.38489C10.9516 0.950851 17.5072 0.182617 24.2335 0.182617C29.5514 0.182617 34.7498 0.652094 39.8116 1.54837C19.2997 10.0587 5.27521 30.6815 6.23123 54.1553C7.46894 84.236 32.8548 107.633 62.944 106.395C84.8472 105.499 103.199 91.8073 111.087 72.8063C111.983 77.8596 112.452 83.0751 112.452 88.393Z" fill="white"/>
<path d="M110.678 62.5718C110.49 63.6217 110.055 64.5948 109.423 65.4142C108.459 66.7117 107.016 67.6336 105.352 67.9323C103.072 68.3335 100.742 68.5981 98.3692 68.692C69.6372 69.87 45.3952 47.54 44.2172 18.808C44.0636 14.9839 44.3196 11.2452 44.9598 7.62596C45.2671 5.85049 46.2829 4.32256 47.6999 3.34093C48.4596 2.80316 49.3388 2.43612 50.2863 2.2654C52.5654 1.85567 54.8957 1.59106 57.2687 1.49716C86.0006 0.319204 110.243 22.6577 111.421 51.3812C111.574 55.2053 111.31 58.9525 110.678 62.5718Z" fill="white"/>
<path d="M110.678 62.5718C110.49 63.6217 110.055 64.5948 109.423 65.4142C108.459 66.7117 107.016 67.6336 105.352 67.9323C103.072 68.3335 100.742 68.5981 98.3692 68.692C69.6372 69.87 45.3952 47.54 44.2172 18.808C44.0636 14.9839 44.3196 11.2452 44.9598 7.62596C45.2671 5.85049 46.2829 4.32256 47.6999 3.34093C48.4596 2.80316 49.3388 2.43612 50.2863 2.2654C52.5654 1.85567 54.8957 1.59106 57.2687 1.49716C86.0006 0.319204 110.243 22.6577 111.421 51.3812C111.574 55.2053 111.31 58.9525 110.678 62.5718Z" fill="white"/>
</g>
<defs>
<clipPath id="clip0_305_339">
<rect width="112.452" height="112" fill="white" transform="translate(0 0.182617)"/>
</clipPath>
</defs>
</svg>
