<svg width="203" height="35" viewBox="0 0 203 35" fill="none" xmlns="http://www.w3.org/2000/svg">
<mask id="mask0_96_2676" style="mask-type:alpha" maskUnits="userSpaceOnUse" x="0" y="0" width="203" height="35">
<path d="M1.16449 18.5564C1.16449 10.803 6.85832 5.10577 14.928 5.10577C21.7702 5.10577 26.9518 9.21799 28.3374 15.2316H22.2447C21.1376 12.3434 18.4488 10.4455 14.928 10.4455C10.1832 10.4455 7.01648 13.8459 7.01648 18.553C7.01648 23.26 10.1797 26.6605 14.928 26.6605C18.4488 26.6605 21.1376 24.7626 22.2447 21.8744H28.3374C26.9518 27.888 21.7702 32.0002 14.928 32.0002C6.85832 32.0036 1.16449 26.3064 1.16449 18.5564Z" fill="white"/>
<path d="M31.5786 21.166V5.62146H37.355V21.166C37.355 24.6456 39.0569 26.6639 42.5743 26.6639C46.0917 26.6639 47.8727 24.6869 47.8727 21.166V5.62146H53.4909V21.166C53.4909 27.771 49.616 32.0036 42.6156 32.0036C35.6152 32.0036 31.5821 27.8123 31.5821 21.166H31.5786Z" fill="white"/>
<path d="M81.9086 18.5565C81.9086 10.8031 87.6025 5.10931 95.6722 5.10931C103.742 5.10931 109.436 10.8031 109.436 18.5565C109.436 26.3099 103.742 32.0037 95.6722 32.0037C87.6025 32.0037 81.9086 26.3099 81.9086 18.5565ZM103.58 18.5565C103.58 13.8495 100.417 10.449 95.6687 10.449C90.9204 10.449 87.7572 13.8495 87.7572 18.5565C87.7572 23.2636 90.9204 26.664 95.6687 26.664C100.417 26.664 103.58 23.2636 103.58 18.5565Z" fill="white"/>
<path d="M117.856 10.9611H110.498V5.6214H131.025V10.9611H123.629V31.4878H117.856V10.9611Z" fill="white"/>
<path d="M133.323 16.4178C133.323 9.41741 137.318 5.10577 144.635 5.10577C151.951 5.10577 156.026 9.41741 156.026 16.4178V31.4879H150.291V23.9339H138.937V31.4879H133.323V16.4178ZM150.291 18.8727V16.4212C150.291 12.5463 148.472 10.4489 144.593 10.4489C140.715 10.4489 138.937 12.5463 138.937 16.4212V18.8727H150.291Z" fill="white"/>
<path d="M74.4527 22.0945C77.8532 20.8292 79.593 17.9032 79.593 14.0661C79.593 9.04269 76.6257 5.36371 69.9038 5.36371H57.3403L60.029 10.7034H69.9829C72.8711 10.7034 73.7788 12.1269 73.7788 14.0661C73.7788 16.0053 72.8676 17.4665 69.9829 17.4665H63.3195C61.0811 17.4665 59.2657 19.282 59.2657 21.5203V31.2301H65.0421V22.8062H68.6798L73.7032 31.2301H80.5454L74.4527 22.0945Z" fill="white"/>
<path d="M158.78 28.5549C158.78 26.9355 159.969 25.7424 161.592 25.7424C163.215 25.7424 164.405 26.932 164.405 28.5549C164.405 30.1778 163.215 31.3674 161.592 31.3674C159.969 31.3674 158.78 30.1778 158.78 28.5549Z" fill="white"/>
<path d="M167.787 19.1686C167.787 11.7832 173.031 6.58789 180.513 6.58789C187.994 6.58789 193.045 11.6388 193.045 19.1686V30.7489H189.473V25.2682C187.853 29.2704 184.181 31.3678 179.845 31.3678C173.505 31.3678 167.787 26.7914 167.787 19.1686ZM189.187 18.9761C189.187 13.8771 185.66 10.2084 180.464 10.2084C175.269 10.2084 171.741 13.8771 171.741 18.9761C171.741 24.0751 175.269 27.7438 180.464 27.7438C185.66 27.7438 189.187 24.027 189.187 18.9761Z" fill="white"/>
<path d="M197.495 3.19746C197.495 1.73274 198.571 0.656555 200.035 0.656555C201.5 0.656555 202.576 1.73274 202.576 3.19746C202.576 4.66218 201.5 5.77963 200.035 5.77963C198.571 5.77963 197.495 4.65874 197.495 3.19746ZM198.268 9.48268H201.799V30.7486H198.268V9.48268Z" fill="white"/>
</mask>
<g mask="url(#mask0_96_2676)">
<rect x="-3.2644" y="-3.96661" width="223.366" height="47.3807" fill="#C6E7E2"/>
</g>
</svg>
