<svg width="63" height="63" viewBox="0 0 63 63" fill="none" xmlns="http://www.w3.org/2000/svg">
<rect width="62.5885" height="62.5885" rx="11.7353" fill="#203E40"/>
<g clip-path="url(#clip0_881_58566)">
<path d="M34.2322 46.8511C24.6371 47.2455 16.5417 39.7863 16.1499 30.1945C15.8281 22.3487 20.7606 15.5071 27.8156 13.0605C26.0278 12.705 24.1804 12.5156 22.2889 12.5156C20.5245 12.5156 18.799 12.6817 17.1255 12.9956C16.2666 13.1539 15.6465 13.9115 15.6465 14.7858V45.4657C15.6465 46.4723 16.4612 47.287 17.468 47.287H48.1475C49.0219 47.287 49.7796 46.6669 49.9404 45.8081C50.2544 44.1347 50.4205 42.4094 50.4205 40.6425C50.4205 38.8757 50.244 37.0232 49.9093 35.2901C47.6052 41.7841 41.5414 46.5528 34.2348 46.8537L34.2322 46.8511Z" fill="#C6E7E2"/>
<path d="M32.619 13.2094C31.921 13.2379 31.2334 13.3106 30.564 13.4247C29.5884 13.5882 28.8282 14.3432 28.6673 15.3187C28.4831 16.4239 28.4104 17.5655 28.4571 18.7304C28.8334 27.889 36.5629 35.0109 45.7222 34.6347C46.4201 34.6061 47.1077 34.5335 47.7772 34.4193C48.7528 34.2559 49.513 33.5009 49.6739 32.5254C49.8581 31.4201 49.9307 30.2785 49.884 29.1136C49.5104 19.955 41.7808 12.8358 32.619 13.2094Z" fill="#C6E7E2"/>
</g>
<defs>
<clipPath id="clip0_881_58566">
<rect width="34.7714" height="34.7714" fill="white" transform="translate(15.6484 12.5166)"/>
</clipPath>
</defs>
</svg>
