<svg width="168" height="200" viewBox="0 0 168 200" fill="none" xmlns="http://www.w3.org/2000/svg">
<path d="M-7.86805e-06 20C-8.35087e-06 8.9543 9.04211 -0.2016 19.8676 1.99306C38.987 5.86917 56.7107 15.2893 70.7107 29.2893C89.4643 48.0429 100 73.4783 100 100C100 126.522 89.4643 151.957 70.7107 170.711C56.7107 184.711 38.9871 194.131 19.8676 198.007C9.04214 200.202 1.4209e-05 191.046 1.19548e-05 180L-4.37114e-06 100L-7.86805e-06 20Z" fill="#DCABDF"/>
<path d="M168 20C168 8.9543 158.958 -0.2016 148.132 1.99306C129.013 5.86917 111.289 15.2893 97.2893 29.2893C78.5357 48.0429 68 73.4783 68 100C68 126.522 78.5357 151.957 97.2893 170.711C111.289 184.711 129.013 194.131 148.132 198.007C158.958 200.202 168 191.046 168 180L168 100L168 20Z" fill="#E79F47"/>
<path fill-rule="evenodd" clip-rule="evenodd" d="M84 46C94.3644 62.0461 100 80.8622 100 100.259C100 119.657 94.3644 138.473 84 154.519C73.6356 138.473 68 119.657 68 100.259C68 80.8622 73.6356 62.0461 84 46Z" fill="#F06449"/>
</svg>
